<svg width="11" height="8" viewBox="0 0 11 8" fill="none" xmlns="http://www.w3.org/2000/svg">
<path d="M10.9914 6.66527C10.9914 6.90032 10.9222 7.11858 10.8185 7.30326L7.35349 3.5341L10.784 0.621188C10.9136 0.831052 11 1.06612 11 1.32635V6.66527H10.9914ZM5.49568 4.22246L10.2655 0.167901C10.0668 0.0671666 9.85075 0 9.6088 0H1.37392C1.13197 0 0.915947 0.0671666 0.717203 0.167901L5.49568 4.22246ZM6.8264 3.97901L5.72035 4.91922C5.65122 4.97798 5.57345 5.00314 5.49568 5.00314C5.41791 5.00314 5.3315 4.97798 5.27101 4.91922L4.16496 3.97901L0.656717 7.79854C0.864101 7.92446 1.11469 8 1.38256 8H9.61744C9.88531 8 10.1273 7.92446 10.3433 7.79854L6.8264 3.97901ZM0.216025 0.621188C0.0864101 0.831052 0 1.06612 0 1.32635V6.65687C0 6.89191 0.0691287 7.11018 0.172821 7.29486L3.63786 3.52572L0.216025 0.621188Z" fill="#7A9CA7"/>
</svg>
