<svg width="4" height="6" viewBox="0 0 4 6" fill="none" xmlns="http://www.w3.org/2000/svg">
<path opacity="0.6" d="M0.870997 6C0.731445 5.99908 0.593641 5.965 0.466606 5.90001C0.329213 5.83188 0.212156 5.72069 0.129415 5.57973C0.0466747 5.43877 0.0017478 5.274 0 5.10509V0.895497C0.0017478 0.726586 0.0466747 0.561812 0.129415 0.420853C0.212156 0.279893 0.329213 0.168707 0.466606 0.100574C0.624692 0.016566 0.800576 -0.0157904 0.974214 0.00719176C1.14785 0.030174 1.31226 0.107571 1.4487 0.230562L3.71507 2.33536C3.80394 2.41496 3.87572 2.51608 3.92505 2.63121C3.97438 2.74633 4 2.87249 4 3.00029C4 3.1281 3.97438 3.25425 3.92505 3.36938C3.87572 3.4845 3.80394 3.58563 3.71507 3.66523L1.4487 5.77002C1.28533 5.91907 1.08133 6.00028 0.870997 6Z" fill="#003D74"/>
</svg>
